HIERARCHY
ROOT Hips
{
	OFFSET 0.000000 0.000000 0.000000
	CHANNELS 6 Xposition Yposition Zposition Zrotation Yrotation Xrotation 
	JOINT LHipJoint
	{
		OFFSET 0.000000 0.000000 0.000000
		CHANNELS 3 Zrotation Yrotation Xrotation
		JOINT LeftUpLeg
		{
			OFFSET 1.363060 -1.794630 0.839290
			CHANNELS 3 Zrotation Yrotation Xrotation
			JOINT LeftLeg
			{
				OFFSET 2.448110 -6.726130 0.000000
				CHANNELS 3 Zrotation Yrotation Xrotation
				JOINT LeftFoot
				{
					OFFSET 2.562200 -7.039590 0.000000
					CHANNELS 3 Zrotation Yrotation Xrotation
					JOINT LeftToeBase
					{
						OFFSET 0.157640 -0.433110 2.322550
						CHANNELS 3 Zrotation Yrotation Xrotation
						End Site
						{
							OFFSET 0.000000 0.000000 0.000000
						}
					}
				}
			}
		}
	}
	JOINT RHipJoint
	{
		OFFSET 0.000000 0.000000 0.000000
		CHANNELS 3 Zrotation Yrotation Xrotation
		JOINT RightUpLeg
		{
			OFFSET -1.305520 -1.794630 0.839290
			CHANNELS 3 Zrotation Yrotation Xrotation
			JOINT RightLeg
			{
				OFFSET -2.542530 -6.985550 0.000000
				CHANNELS 3 Zrotation Yrotation Xrotation
				JOINT RightFoot
				{
					OFFSET -2.568260 -7.056230 0.000000
					CHANNELS 3 Zrotation Yrotation Xrotation
					JOINT RightToeBase
					{
						OFFSET -0.164730 -0.452590 2.363150
						CHANNELS 3 Zrotation Yrotation Xrotation
						End Site
						{
							OFFSET 0.000000 0.000000 0.000000
						}
					}
				}
			}
		}
	}
	JOINT LowerBack
	{
		OFFSET 0.000000 0.000000 0.000000
		CHANNELS 3 Zrotation Yrotation Xrotation
		JOINT Spine
		{
			OFFSET 0.028270 2.035590 -0.193380
			CHANNELS 3 Zrotation Yrotation Xrotation
			JOINT Spine1
			{
				OFFSET 0.056720 2.048850 -0.042750
				CHANNELS 3 Zrotation Yrotation Xrotation
				JOINT Neck
				{
					OFFSET 0.000000 0.000000 0.000000
					CHANNELS 3 Zrotation Yrotation Xrotation
					JOINT Neck1
					{
						OFFSET -0.054170 1.746240 0.172020
						CHANNELS 3 Zrotation Yrotation Xrotation
						JOINT Head
						{
							OFFSET 0.104070 1.761360 -0.123970
							CHANNELS 3 Zrotation Yrotation Xrotation
							End Site
							{
								OFFSET 0.000000 0.000000 0.000000
							}
						}
					}
				}
				JOINT LeftShoulder
				{
					OFFSET 0.000000 0.000000 0.000000
					CHANNELS 3 Zrotation Yrotation Xrotation
					JOINT LeftArm
					{
						OFFSET 3.362410 1.200890 -0.311210
						CHANNELS 3 Zrotation Yrotation Xrotation
						JOINT LeftForeArm
						{
							OFFSET 4.983000 -0.000000 -0.000000
							CHANNELS 3 Zrotation Yrotation Xrotation
							JOINT LeftHand
							{
								OFFSET 3.483560 -0.000000 -0.000000
								CHANNELS 3 Zrotation Yrotation Xrotation
								JOINT LeftFingerBase
								{
									OFFSET 0.000000 0.000000 0.000000
									CHANNELS 3 Zrotation Yrotation Xrotation
									JOINT LeftHandIndex1
									{
										OFFSET 0.715260 -0.000000 -0.000000
										CHANNELS 3 Zrotation Yrotation Xrotation
										End Site
										{
											OFFSET 0.000000 0.000000 0.000000
										}
									}
								}
								JOINT LThumb
								{
									OFFSET 0.000000 0.000000 0.000000
									CHANNELS 3 Zrotation Yrotation Xrotation
									End Site
									{
										OFFSET 0.000000 0.000000 0.000000
									}
								}
							}
						}
					}
				}
				JOINT RightShoulder
				{
					OFFSET 0.000000 0.000000 0.000000
					CHANNELS 3 Zrotation Yrotation Xrotation
					JOINT RightArm
					{
						OFFSET -3.136600 1.374050 -0.404650
						CHANNELS 3 Zrotation Yrotation Xrotation
						JOINT RightForeArm
						{
							OFFSET -5.241900 -0.000000 -0.000000
							CHANNELS 3 Zrotation Yrotation Xrotation
							JOINT RightHand
							{
								OFFSET -3.444170 -0.000000 -0.000000
								CHANNELS 3 Zrotation Yrotation Xrotation
								JOINT RightFingerBase
								{
									OFFSET 0.000000 0.000000 0.000000
									CHANNELS 3 Zrotation Yrotation Xrotation
									JOINT RightHandIndex1
									{
										OFFSET -0.622530 -0.000000 -0.000000
										CHANNELS 3 Zrotation Yrotation Xrotation
										End Site
										{
											OFFSET 0.000000 0.000000 0.000000
										}
									}
								}
								JOINT RThumb
								{
									OFFSET 0.000000 0.000000 0.000000
									CHANNELS 3 Zrotation Yrotation Xrotation
									End Site
									{
										OFFSET 0.000000 0.000000 0.000000
									}
								}
							}
						}
					}
				}
			}
		}
	}
}
MOTION
Frames: 11
Frame Time: 0.008333
-9.137856 17.556826 -16.025206 -74.574929 86.373069 -77.006662 3.945858 -0.276103 -0.105597 -13.591146 -13.561057 2.484039 -1.490370 8.260043 22.132373 -0.262003 8.534968 -19.161266 3.455900 -11.398800 -33.637100 -9.548002 0.085709 -5.742133 22.703263 -11.445496 12.204299 1.806782 -0.803547 3.786280 0.221562 -6.476981 -9.063346 -0.193800 2.834800 -7.819100 3.406679 0.560281 9.546996 0.599474 0.921722 -1.177416 0.241256 0.329112 -2.456242 -5.075591 -3.691286 -23.364059 4.620467 -3.746971 19.445774 2.009100 -1.612200 15.511600 6.256841 -8.045632 0.399815 -92.880208 0.305951 4.758742 8.034532 -18.386229 -2.718047 -0.395834 1.833326 -10.122654 29.120740 8.313979 3.435700 -7.125000 0.000000 0.000000 2.114100 37.023800 -0.415100 -7.957243 7.960588 1.769639 88.537266 0.440289 -2.357786 -12.738433 23.691376 -3.332103 -0.517859 -1.665879 35.148472 -18.485611 -11.568280 3.357300 7.125000 0.000000 0.000000 6.984700 -40.225800 0.826700 
-9.117012 17.553205 -16.002306 -78.004227 86.337420 -80.527641 3.961274 -0.330770 -0.139814 -13.496160 -13.572284 2.661590 -1.469226 8.241790 22.184195 -0.253656 8.508158 -19.176845 3.509200 -11.477000 -33.906000 -9.550590 0.003566 -5.706432 22.842978 -11.610451 12.340795 1.815142 -0.820002 3.791961 0.219739 -6.510278 -9.150834 -0.205900 2.921400 -8.060100 3.493734 0.498026 9.535121 0.632085 0.854445 -1.136169 0.310738 0.272952 -2.382600 -5.066188 -3.676026 -23.344884 4.580637 -3.728742 19.418397 1.989500 -1.609200 15.484100 6.267967 -8.065403 0.394005 -93.159803 0.424241 4.733466 7.933355 -18.298718 -2.695313 -0.374584 1.838586 -9.869482 29.178115 8.243366 3.401900 -7.125000 0.000000 0.000000 2.152800 36.944200 -0.426900 -7.924596 7.930610 1.780816 88.234748 0.506731 -1.334304 -13.135660 24.165459 -3.449690 -0.492955 -1.687623 34.400170 -18.588788 -11.601029 3.385700 7.125000 0.000000 0.000000 6.887800 -40.255800 0.810000 
-9.096852 17.550465 -15.979113 -81.613667 86.303031 -84.238676 3.966657 -0.391248 -0.174449 -13.389344 -13.532237 2.828179 -1.447303 8.214521 22.215975 -0.241761 8.435409 -19.139007 3.546000 -11.530500 -34.090600 -9.561701 -0.086530 -5.668197 22.969143 -11.787494 12.485175 1.821723 -0.835924 3.798869 0.214529 -6.505925 -9.243299 -0.201600 2.891200 -7.976000 3.537763 0.430808 9.537813 0.670086 0.779127 -1.100977 0.402125 0.212577 -2.327231 -5.052766 -3.668031 -23.288449 4.527559 -3.721124 19.386675 1.958900 -1.611400 15.445700 6.278000 -8.087054 0.388670 -93.410477 0.543970 4.729965 7.833022 -18.213897 -2.673972 -0.354256 1.843211 -9.601602 29.253061 8.195187 3.382900 -7.125000 0.000000 0.000000 2.207200 36.891100 -0.440600 -7.891259 7.901791 1.794112 87.967284 0.502710 -0.221629 -13.561840 24.680899 -3.584160 -0.460173 -1.721673 33.419621 -18.682499 -11.840138 3.480900 7.125000 0.000000 0.000000 6.824900 -40.490800 0.762800 
-9.077280 17.548117 -15.956116 -85.659183 86.265656 -88.382675 3.959521 -0.465119 -0.212837 -13.270994 -13.471010 2.973460 -1.422508 8.185718 22.248087 -0.227714 8.332750 -19.064194 3.576900 -11.575000 -34.244500 -9.584164 -0.191202 -5.623063 23.089699 -11.977864 12.616932 1.826499 -0.852578 3.805767 0.208047 -6.478230 -9.318302 -0.191400 2.817100 -7.770000 3.562926 0.353899 9.543308 0.706597 0.691875 -1.076630 0.486083 0.144363 -2.290677 -5.049836 -3.672676 -23.208789 4.488915 -3.727719 19.371639 1.935900 -1.618100 15.414800 6.285480 -8.109570 0.384618 -93.606833 0.664766 4.768988 7.729816 -18.125277 -2.650921 -0.336831 1.846068 -9.318909 29.299925 8.174390 3.376600 -7.125000 0.000000 0.000000 2.240200 36.869800 -0.448300 -7.864200 7.874266 1.805032 87.792490 0.473188 0.694252 -13.981560 25.183563 -3.724261 -0.425439 -1.760097 32.460946 -18.759416 -12.218092 3.620800 7.125000 0.000000 0.000000 6.795000 -40.865700 0.696400 
-9.058197 17.545768 -15.934391 -90.103155 86.227077 -92.911199 3.935799 -0.552356 -0.253742 -13.154017 -13.417892 3.104578 -1.399748 8.152613 22.267375 -0.217257 8.237276 -18.966569 3.614100 -11.628400 -34.429600 -9.621666 -0.309440 -5.571788 23.202178 -12.176384 12.722505 1.829931 -0.869681 3.811817 0.203079 -6.454934 -9.364984 -0.188600 2.796800 -7.713600 3.577438 0.265000 9.541102 0.736516 0.589686 -1.064239 0.545272 0.066894 -2.268386 -5.061073 -3.687773 -23.130246 4.479029 -3.743866 19.392605 1.930300 -1.625400 15.409700 6.289869 -8.131531 0.382074 -93.737159 0.781698 4.858790 7.625125 -18.032858 -2.624784 -0.323540 1.846690 -9.029726 29.287760 8.177023 3.377300 -7.125000 0.000000 0.000000 2.226600 36.874700 -0.445300 -7.847702 7.848497 1.810382 87.734472 0.458321 1.263813 -14.353838 25.620920 -3.854140 -0.395154 -1.794604 31.706767 -18.812959 -12.610817 3.762900 7.125000 0.000000 0.000000 6.789700 -41.256700 0.630100 
-9.039995 17.542832 -15.914721 -94.614974 86.193142 -97.484530 3.894559 -0.645938 -0.292827 -13.057468 -13.403118 3.225977 -1.382867 8.118408 22.272107 -0.213171 8.179303 -18.877486 3.660600 -11.694600 -34.659900 -9.674102 -0.431381 -5.519422 23.298573 -12.369914 12.796356 1.832651 -0.885773 3.816643 0.201493 -6.458335 -9.388195 -0.201000 2.887200 -7.964700 3.575748 0.166838 9.523437 0.758996 0.473864 -1.062538 0.581367 -0.017013 -2.253251 -5.074843 -3.702478 -23.076970 4.490149 -3.757283 19.458407 1.938400 -1.628000 15.439800 6.291789 -8.151591 0.380524 -93.807675 0.886868 4.992191 7.526121 -17.943690 -2.597674 -0.314681 1.845524 -8.766163 29.223391 8.194191 3.380500 -7.125000 0.000000 0.000000 2.171400 36.895600 -0.433200 -7.840922 7.825051 1.809790 87.768021 0.471700 1.550763 -14.654809 25.968470 -3.961014 -0.372338 -1.820539 31.182050 -18.838385 -12.905975 3.867300 7.125000 0.000000 0.000000 6.798600 -41.549400 0.581700 
-9.022674 17.539603 -15.897693 -98.788054 86.169222 -101.690899 3.840501 -0.735500 -0.325505 -12.995783 -13.452499 3.345968 -1.375518 8.084845 22.258017 -0.215931 8.177574 -18.830839 3.707000 -11.759900 -34.887800 -9.735537 -0.544322 -5.471667 23.372050 -12.542360 12.838978 1.835011 -0.899381 3.820179 0.202775 -6.490283 -9.403628 -0.226800 3.065100 -8.460200 3.549985 0.065850 9.485968 0.777663 0.349726 -1.069047 0.609820 -0.102111 -2.238534 -5.068935 -3.701971 -23.061285 4.495138 -3.753119 19.561948 1.943100 -1.620900 15.500600 6.293065 -8.169549 0.378975 -93.841588 0.971956 5.150872 7.442942 -17.870670 -2.573983 -0.309770 1.843815 -8.578109 29.148631 8.219635 3.386900 -7.125000 0.000000 0.000000 2.108500 36.925200 -0.419100 -7.838618 7.803847 1.805550 87.831951 0.494956 1.780728 -14.884305 26.234515 -4.040400 -0.355384 -1.838026 30.770883 -18.836473 -13.058266 3.917500 7.125000 0.000000 0.000000 6.814400 -41.696200 0.558200 
-9.006429 17.536667 -15.883405 -102.393343 86.155688 -105.300527 3.780753 -0.814023 -0.349799 -12.972651 -13.583097 3.476154 -1.379181 8.051462 22.221612 -0.223150 8.232166 -18.850806 3.735000 -11.799100 -35.025000 -9.798057 -0.640662 -5.431378 23.421032 -12.685213 12.855609 1.836766 -0.909963 3.822718 0.204567 -6.529260 -9.428157 -0.252600 3.234000 -8.930900 3.500055 -0.030093 9.428540 0.797833 0.226053 -1.081150 0.647252 -0.182291 -2.220839 -5.021621 -3.676121 -23.077978 4.462861 -3.723487 19.682535 1.923800 -1.603000 15.575100 6.295783 -8.186576 0.376525 -93.865971 1.029493 5.309980 7.384181 -17.824769 -2.558473 -0.307805 1.842922 -8.502728 29.114074 8.251825 3.401200 -7.125000 0.000000 0.000000 2.079000 36.962300 -0.411300 -7.834367 7.783850 1.801104 87.862463 0.492258 2.202158 -15.057903 26.446187 -4.095693 -0.340069 -1.850800 30.310389 -18.817462 -13.105771 3.927900 7.125000 0.000000 0.000000 6.832700 -41.734900 0.553200 
-8.990869 17.534710 -15.871466 -105.520313 86.146954 -108.408584 3.718562 -0.881895 -0.366912 -12.979963 -13.798017 3.626819 -1.392774 8.016395 22.163080 -0.231365 8.327454 -18.942269 3.730000 -11.792200 -35.000700 -9.858477 -0.722077 -5.397634 23.449039 -12.804420 12.855611 1.837121 -0.918060 3.824987 0.203437 -6.539831 -9.472246 -0.258400 3.270200 -9.032000 3.435097 -0.114526 9.355815 0.822613 0.112924 -1.096337 0.698652 -0.253192 -2.200300 -4.924090 -3.625921 -23.105945 4.375583 -3.673544 19.793267 1.867400 -1.578000 15.640700 6.301301 -8.204458 0.372807 -93.899315 1.053421 5.446266 7.352949 -17.809978 -2.552900 -0.307685 1.843570 -8.537577 29.143875 8.292308 3.426900 -7.125000 0.000000 0.000000 2.102400 37.008800 -0.413600 -7.824292 7.763550 1.799178 87.828606 0.433404 2.938911 -15.194040 26.629985 -4.134985 -0.322922 -1.863535 29.704196 -18.798691 -13.138374 3.932300 7.125000 0.000000 0.000000 6.850700 -41.757300 0.550900 
-8.975701 17.534025 -15.861582 -108.544887 86.134892 -111.403941 3.649653 -0.946285 -0.379847 -13.004858 -14.082812 3.801929 -1.413058 7.978361 22.088017 -0.237392 8.439181 -19.088899 3.689600 -11.735400 -34.802400 -9.922073 -0.797751 -5.367390 23.460610 -12.920003 12.850959 1.835112 -0.924754 3.828054 0.196815 -6.492243 -9.534598 -0.230300 3.088500 -8.525200 3.368375 -0.182086 9.276206 0.850286 0.020382 -1.112098 0.751976 -0.311540 -2.179297 -4.785833 -3.565506 -23.119103 4.239799 -3.622058 19.872476 1.775600 -1.554100 15.679600 6.309399 -8.224366 0.368227 -93.942237 1.041340 5.548838 7.346985 -17.822013 -2.555882 -0.308572 1.845410 -8.633174 29.216442 8.340004 3.461200 -7.125000 0.000000 0.000000 2.161300 37.063400 -0.422300 -7.809223 7.742051 1.800470 87.749429 0.311070 3.916454 -15.303551 26.796536 -4.165398 -0.303476 -1.879068 28.988493 -18.795471 -13.241547 3.963100 7.125000 0.000000 0.000000 6.867000 -41.851100 0.536200 
-8.960630 17.534220 -15.853264 -111.926316 86.114423 -114.759509 3.564432 -1.015834 -0.391026 -13.037198 -14.405725 3.995408 -1.435672 7.938727 22.006129 -0.240263 8.546176 -19.257123 3.628100 -11.648400 -34.499100 -10.000020 -0.877641 -5.338393 23.456094 -13.056040 12.854402 1.830110 -0.930735 3.833005 0.184604 -6.379164 -9.603364 -0.174100 2.687500 -7.409900 3.307985 -0.229709 9.201218 0.874536 -0.043584 -1.126046 0.784699 -0.355830 -2.161231 -4.632168 -3.516208 -23.099063 4.084066 -3.593112 19.911333 1.665100 -1.540800 15.685600 6.318197 -8.245945 0.363827 -93.977582 0.996414 5.633422 7.362518 -17.854430 -2.563150 -0.310511 1.847275 -8.724550 29.274349 8.389791 3.494900 -7.125000 0.000000 0.000000 2.208700 37.119600 -0.428500 -7.794189 7.720101 1.803596 87.682556 0.142741 4.907274 -15.382545 26.934626 -4.188960 -0.284640 -1.896918 28.311344 -18.811151 -13.444148 4.031800 7.125000 0.000000 0.000000 6.882200 -42.047800 0.503900 
